<svg width="25" height="25" viewBox="0 0 25 25" fill="none" xmlns="http://www.w3.org/2000/svg">
<path d="M7.03135 1.04099e-07C6.12262 -0.000209415 5.24224 0.31586 4.5418 0.893792C3.84136 1.47172 3.36469 2.27535 3.19385 3.16632C3.42822 3.13512 3.66572 3.11952 3.90635 3.11952H16.4063C17.8567 3.11952 19.2477 3.69468 20.2733 4.71847C21.2989 5.74227 21.8751 7.13082 21.8751 8.57868V17.0794C22.7574 16.8996 23.5504 16.421 24.1199 15.7247C24.6893 15.0283 25.0003 14.1569 25.0001 13.258V6.23904C25.0001 4.58435 24.3416 2.99742 23.1695 1.82737C21.9974 0.657326 20.4077 1.04099e-07 18.7501 1.04099e-07H7.03135Z" fill="white"/>
<path d="M3.90625 4.6792C2.87025 4.6792 1.87668 5.09003 1.14411 5.82131C0.41155 6.55259 0 7.54442 0 8.5786V17.9372C0 18.9714 0.41155 19.9632 1.14411 20.6945C1.87668 21.4257 2.87025 21.8366 3.90625 21.8366H4.6875V23.44C4.68747 23.7266 4.76653 24.0076 4.91599 24.2522C5.06545 24.4969 5.27954 24.6957 5.53476 24.8269C5.78998 24.9581 6.07647 25.0165 6.36278 24.9958C6.6491 24.9752 6.92417 24.8761 7.15781 24.7096L11.1891 21.8366H16.4062C17.4423 21.8366 18.4358 21.4257 19.1684 20.6945C19.901 19.9632 20.3125 18.9714 20.3125 17.9372V8.5786C20.3125 7.54442 19.901 6.55259 19.1684 5.82131C18.4358 5.09003 17.4423 4.6792 16.4062 4.6792H3.90625Z" fill="white"/>
</svg>
